<?xml version="1.0" encoding="UTF-8" standalone="no"?><svg xmlns="http://www.w3.org/2000/svg" xmlns:xlink="http://www.w3.org/1999/xlink" contentScriptType="application/ecmascript" contentStyleType="text/css" height="988px" preserveAspectRatio="none" style="width:677px;height:988px;" version="1.1" viewBox="0 0 677 988" width="677px" zoomAndPan="magnify"><defs/><g><!--cluster ##360--><rect fill="#F5F2F0" height="117" style="stroke: #CCCCCC; stroke-width: 2.0;" width="256" x="55" y="367"/><!--cluster pubRepo--><path d="M72,39 C72,36 74,34 77,34 C80,34 82,36 82,39 C82,36 84,34 87,34 C90,34 92,36 92,39 C92,36 94,34 97,34 C100,34 102,36 102,39 C102,36 104,34 107,34 C110,34 112,36 112,39 C112,36 114,34 117,34 C120,34 122,36 122,39 C122,36 124,34 127,34 C130,34 132,36 132,39 C132,36 134,34 137,34 C140,34 142,36 142,39 C142,36 144,34 147,34 C150,34 152,36 152,39 C152,36 154,34 157,34 C160,34 162,36 162,39 C162,36 164,34 167,34 C170,34 172,36 172,39 C172,36 174,34 177,34 C180,34 182,36 182,39 C182,36 184,34 187,34 C190,34 192,36 192,39 C192,36 194,34 197,34 C200,34 202,36 202,39 C202,36 204,34 207,34 C210,34 212,36 212,39 C212,36 214,34 217,34 C220,34 222,36 222,39 C222,36 224,34 227,34 C230,34 232,36 232,39 C232,36 234,34 237,34 C240,34 242,36 242,39 C242,36 244,34 247,34 C250,34 252,36 252,39 C255,39 257,41 257,44 C257,47 255,49 252,49 C255,49 257,51 257,54 C257,57 255,59 252,59 C255,59 257,61 257,64 C257,67 255,69 252,69 C255,69 257,71 257,74 C257,77 255,79 252,79 C255,79 257,81 257,84 C257,87 255,89 252,89 C255,89 257,91 257,94 C257,97 255,99 252,99 C255,99 257,101 257,104 C257,107 255,109 252,109 C255,109 257,111 257,114 C257,117 255,119 252,119 C255,119 257,121 257,124 C257,127 255,129 252,129 C252,132 249,134 247,134 C244,134 242,132 242,129 C242,132 239,134 237,134 C234,134 232,132 232,129 C232,132 229,134 227,134 C224,134 222,132 222,129 C222,132 219,134 217,134 C214,134 212,132 212,129 C212,132 209,134 207,134 C204,134 202,132 202,129 C202,132 199,134 197,134 C194,134 192,132 192,129 C192,132 189,134 187,134 C184,134 182,132 182,129 C182,132 179,134 177,134 C174,134 172,132 172,129 C172,132 169,134 167,134 C164,134 162,132 162,129 C162,132 159,134 157,134 C154,134 152,132 152,129 C152,132 149,134 147,134 C144,134 142,132 142,129 C142,132 139,134 137,134 C134,134 132,132 132,129 C132,132 129,134 127,134 C124,134 122,132 122,129 C122,132 119,134 117,134 C114,134 112,132 112,129 C112,132 109,134 107,134 C104,134 102,132 102,129 C102,132 99,134 97,134 C94,134 92,132 92,129 C92,132 89,134 87,134 C84,134 82,132 82,129 C82,132 79,134 77,134 C74,134 72,132 72,129 C69,129 67,127 67,124 C67,121 69,119 72,119 C69,119 67,117 67,114 C67,111 69,109 72,109 C69,109 67,107 67,104 C67,101 69,99 72,99 C69,99 67,97 67,94 C67,91 69,89 72,89 C69,89 67,87 67,84 C67,81 69,79 72,79 C69,79 67,77 67,74 C67,71 69,69 72,69 C69,69 67,67 67,64 C67,61 69,59 72,59 C69,59 67,57 67,54 C67,51 69,49 72,49 C69,49 67,47 67,44 C67,41 69,39 72,39 " fill="#FFFFFF" style="stroke: #0081C6; stroke-width: 2.0;"/><text fill="#000000" font-family="sans-serif" font-size="14" font-weight="bold" lengthAdjust="spacingAndGlyphs" textLength="75" x="125" y="57.9951">packages</text><!--cluster Browser--><polygon fill="#FFFFFF" points="22,708,95,708,102,730.2969,491,730.2969,491,812,22,812,22,708" style="stroke: #0081C6; stroke-width: 2.0;"/><line style="stroke: #0081C6; stroke-width: 2.0;" x1="22" x2="102" y1="730.2969" y2="730.2969"/><text fill="#000000" font-family="sans-serif" font-size="14" font-weight="bold" lengthAdjust="spacingAndGlyphs" textLength="67" x="26" y="722.9951">Browser</text><!--cluster dartVM--><polygon fill="#E5ECF0" points="537,884,605,884,612,906.2969,676,906.2969,676,987,537,987,537,884" style="stroke: #0081C6; stroke-width: 2.0;"/><line style="stroke: #0081C6; stroke-width: 2.0;" x1="537" x2="612" y1="906.2969" y2="906.2969"/><text fill="#000000" font-family="sans-serif" font-size="14" font-weight="bold" lengthAdjust="spacingAndGlyphs" textLength="62" x="541" y="898.9951">Dart VM</text><!--entity devProject--><ellipse cx="264" cy="404.5" fill="#55DDCA" rx="12" ry="12" style="stroke: #0081C6; stroke-width: 2.0;"/><polygon fill="#0081C6" points="260,392.5,266,387.5,264,392.5,266,397.5,260,392.5" style="stroke: #0081C6; stroke-width: 1.0;"/><text fill="#000000" font-family="sans-serif" font-size="18" lengthAdjust="spacingAndGlyphs" textLength="39" x="233" y="437.208">Dart</text><text fill="#000000" font-family="sans-serif" font-size="18" lengthAdjust="spacingAndGlyphs" textLength="62" x="233" y="458.1611">Project</text><!--entity ides--><a target="_top" xlink:actuate="onRequest" xlink:href="https://www.dartlang.org/tools#ides" xlink:show="new" xlink:title="https://www.dartlang.org/tools#ides" xlink:type="simple"><rect fill="#E5ECF0" height="85.1875" style="stroke: #46749F; stroke-width: 1.5;" width="92" x="71" y="383"/><rect fill="#E5ECF0" height="5" style="stroke: #46749F; stroke-width: 1.5;" width="10" x="66" y="388"/><rect fill="#E5ECF0" height="5" style="stroke: #46749F; stroke-width: 1.5;" width="10" x="66" y="458.1875"/><text fill="#000000" font-family="sans-serif" font-size="14" lengthAdjust="spacingAndGlyphs" textLength="38" x="81" y="405.9951">Intellij</text><text fill="#000000" font-family="sans-serif" font-size="14" lengthAdjust="spacingAndGlyphs" textLength="72" x="81" y="422.292">WebStorm</text><text fill="#000000" font-family="sans-serif" font-size="14" lengthAdjust="spacingAndGlyphs" textLength="59" x="81" y="438.5889">VS Code</text><text fill="#000000" font-family="sans-serif" font-size="14" lengthAdjust="spacingAndGlyphs" textLength="36" x="81" y="454.8857">Atom</text></a><!--entity pub repository--><a target="_top" xlink:actuate="onRequest" xlink:href="https://pub.dartlang.org/" xlink:show="new" xlink:title="https://pub.dartlang.org/" xlink:type="simple"><rect fill="#FEFECE" height="36.2969" rx="35" ry="35" style="stroke: #000000; stroke-width: 1.5;" width="120" x="112" y="75"/><text fill="#000000" font-family="sans-serif" font-size="14" lengthAdjust="spacingAndGlyphs" textLength="100" x="122" y="97.9951">pub repository</text></a><!--entity devServer--><rect fill="#E5ECF0" height="52.5938" style="stroke: #46749F; stroke-width: 1.5;" width="125" x="151.5" y="743"/><rect fill="#E5ECF0" height="5" style="stroke: #46749F; stroke-width: 1.5;" width="10" x="146.5" y="748"/><rect fill="#E5ECF0" height="5" style="stroke: #46749F; stroke-width: 1.5;" width="10" x="146.5" y="785.5938"/><text fill="#000000" font-family="sans-serif" font-size="14" lengthAdjust="spacingAndGlyphs" textLength="103" x="161.5" y="765.9951">localhost:8091</text><text fill="#000000" font-family="sans-serif" font-size="14" lengthAdjust="spacingAndGlyphs" textLength="105" x="161.5" y="782.292">dev web server</text><!--entity observatory--><a target="_top" xlink:actuate="onRequest" xlink:href="https://dart-lang.github.io/observatory/" xlink:show="new" xlink:title="https://dart-lang.github.io/observatory/" xlink:type="simple"><rect fill="#DFF0D8" height="36.2969" style="stroke: #468847; stroke-width: 1.5;" width="101" x="373.5" y="751.5"/><text fill="#000000" font-family="sans-serif" font-size="14" lengthAdjust="spacingAndGlyphs" textLength="81" x="383.5" y="774.4951">observatory</text></a><!--entity webApp--><polygon fill="#FEFECE" points="37.5,743,37.5,795.5938,116.5,795.5938,116.5,753,106.5,743,37.5,743" style="stroke: #000000; stroke-width: 1.5;"/><path d="M106.5,743 L106.5,753 L116.5,753 " fill="#FEFECE" style="stroke: #000000; stroke-width: 1.5;"/><text fill="#000000" font-family="sans-serif" font-size="14" lengthAdjust="spacingAndGlyphs" textLength="59" x="47.5" y="765.9951">web app</text><text fill="#000000" font-family="sans-serif" font-size="14" lengthAdjust="spacingAndGlyphs" textLength="46" x="47.5" y="782.292">artifact</text><!--entity vmApp--><polygon fill="#FEFECE" points="580.5,927,580.5,963.2969,651.5,963.2969,651.5,937,641.5,927,580.5,927" style="stroke: #000000; stroke-width: 1.5;"/><path d="M641.5,927 L641.5,937 L651.5,937 " fill="#FEFECE" style="stroke: #000000; stroke-width: 1.5;"/><text fill="#000000" font-family="sans-serif" font-size="14" lengthAdjust="spacingAndGlyphs" textLength="51" x="590.5" y="949.9951">VM app</text><!--entity pubDependencies--><a target="_top" xlink:actuate="onRequest" xlink:href="https://www.dartlang.org/tools/pub" xlink:show="new" xlink:title="https://www.dartlang.org/tools/pub" xlink:type="simple"><rect fill="#DFF0D8" height="68.8906" style="stroke: #468847; stroke-width: 1.5;" width="109" x="22.5" y="190"/><text fill="#000000" font-family="sans-serif" font-size="14" lengthAdjust="spacingAndGlyphs" textLength="54" x="32.5" y="212.9951">pub get</text><text fill="#000000" font-family="sans-serif" font-size="14" lengthAdjust="spacingAndGlyphs" textLength="66" x="32.5" y="229.292">pub deps</text><text fill="#000000" font-family="sans-serif" font-size="14" lengthAdjust="spacingAndGlyphs" textLength="89" x="32.5" y="245.5889">pub upgrade</text></a><ellipse cx="461.9056" cy="92.8161" fill="#E5ECF0" rx="33.4056" ry="17.8161" style="stroke: #46749F; stroke-width: 1.5;"/><text fill="#000000" font-family="sans-serif" font-size="18" lengthAdjust="spacingAndGlyphs" textLength="43" x="440.4056" y="99.7927">Start</text><!--entity stagehand--><a target="_top" xlink:actuate="onRequest" xlink:href="http://stagehand.pub/" xlink:show="new" xlink:title="http://stagehand.pub/" xlink:type="simple"><rect fill="#DFF0D8" height="36.2969" style="stroke: #468847; stroke-width: 1.5;" width="94" x="415" y="206.5"/><text fill="#000000" font-family="sans-serif" font-size="14" lengthAdjust="spacingAndGlyphs" textLength="74" x="425" y="229.4951">stagehand</text></a><!--entity dartAnazyler--><a target="_top" xlink:actuate="onRequest" xlink:href="https://www.dartlang.org/tools/analyzer" xlink:show="new" xlink:title="https://www.dartlang.org/tools/analyzer" xlink:type="simple"><rect fill="#DFF0D8" height="36.2969" style="stroke: #468847; stroke-width: 1.5;" width="108" x="167" y="206.5"/><text fill="#000000" font-family="sans-serif" font-size="14" lengthAdjust="spacingAndGlyphs" textLength="88" x="177" y="229.4951">dart anazyler</text></a><!--entity dartfmt--><a target="_top" xlink:actuate="onRequest" xlink:href="https://pub.dartlang.org/packages/dart_style" xlink:show="new" xlink:title="https://pub.dartlang.org/packages/dart_style" xlink:type="simple"><rect fill="#DFF0D8" height="36.2969" style="stroke: #468847; stroke-width: 1.5;" width="69" x="310.5" y="206.5"/><text fill="#000000" font-family="sans-serif" font-size="14" lengthAdjust="spacingAndGlyphs" textLength="49" x="320.5" y="229.4951">dartfmt</text></a><!--entity pubServe--><a target="_top" xlink:actuate="onRequest" xlink:href="https://webdev.dartlang.org/tools/pub/pub-serve" xlink:show="new" xlink:title="https://webdev.dartlang.org/tools/pub/pub-serve" xlink:type="simple"><rect fill="#DFF0D8" height="36.2969" style="stroke: #468847; stroke-width: 1.5;" width="89" x="169.5" y="585.5"/><text fill="#000000" font-family="sans-serif" font-size="14" lengthAdjust="spacingAndGlyphs" textLength="69" x="179.5" y="608.4951">pub serve</text></a><!--entity pubRun--><a target="_top" xlink:actuate="onRequest" xlink:href="https://www.dartlang.org/tools/pub/cmd/pub-run" xlink:show="new" xlink:title="https://www.dartlang.org/tools/pub/cmd/pub-run" xlink:type="simple"><rect fill="#DFF0D8" height="52.5938" style="stroke: #468847; stroke-width: 1.5;" width="92" x="512" y="577"/><text fill="#000000" font-family="sans-serif" font-size="14" lengthAdjust="spacingAndGlyphs" textLength="54" x="522" y="599.9951">pub run</text><text fill="#000000" font-family="sans-serif" font-size="14" lengthAdjust="spacingAndGlyphs" textLength="72" x="522" y="616.292">pub global</text></a><!--entity pubBuild--><a target="_top" xlink:actuate="onRequest" xlink:href="https://webdev.dartlang.org/tools/pub/pub-build" xlink:show="new" xlink:title="https://webdev.dartlang.org/tools/pub/pub-build" xlink:type="simple"><rect fill="#DFF0D8" height="36.2969" style="stroke: #468847; stroke-width: 1.5;" width="84" x="47" y="585.5"/><text fill="#000000" font-family="sans-serif" font-size="14" lengthAdjust="spacingAndGlyphs" textLength="64" x="57" y="608.4951">pub build</text></a><!--entity pubTest--><a target="_top" xlink:actuate="onRequest" xlink:href="https://pub.dartlang.org/packages/test" xlink:show="new" xlink:title="https://pub.dartlang.org/packages/test" xlink:type="simple"><rect fill="#DFF0D8" height="36.2969" style="stroke: #468847; stroke-width: 1.5;" width="105" x="293.5" y="585.5"/><text fill="#000000" font-family="sans-serif" font-size="14" lengthAdjust="spacingAndGlyphs" textLength="85" x="303.5" y="608.4951">pub run test</text></a><!--link ides to devProject--><path d="M168.396,425.5 C188.218,425.5 208.04,425.5 227.862,425.5 " fill="none" id="ides-devProject" style="stroke: #46749F; stroke-width: 1.0;"/><polygon fill="#46749F" points="232.901,425.5,223.901,421.5,227.901,425.5,223.901,429.5,232.901,425.5" style="stroke: #46749F; stroke-width: 1.0;"/><polygon fill="#46749F" points="163.225,425.5,172.225,429.5,168.225,425.5,172.225,421.5,163.225,425.5" style="stroke: #46749F; stroke-width: 1.0;"/><!--link newProject to stagehand--><path d="M462,111.197 C462,134.32 462,175.478 462,201.029 " fill="none" id="newProject-stagehand" style="stroke: #46749F; stroke-width: 1.0;"/><polygon fill="#46749F" points="462,206.232,466,197.232,462,201.232,458,197.232,462,206.232" style="stroke: #46749F; stroke-width: 1.0;"/><!--link stagehand to devProject--><path d="M454.683,242.669 C442.979,268.592 417.97,318.176 385,351 C360.239,375.651 325.668,395.588 299.816,408.446 " fill="none" id="stagehand-devProject" style="stroke: #46749F; stroke-width: 1.0;"/><polygon fill="#46749F" points="295.095,410.764,304.9367,410.3897,299.5836,408.5611,301.4122,403.208,295.095,410.764" style="stroke: #46749F; stroke-width: 1.0;"/><text fill="#000000" font-family="sans-serif" font-size="13" lengthAdjust="spacingAndGlyphs" textLength="41" x="438.5" y="302.0669">create</text><text fill="#000000" font-family="sans-serif" font-size="13" lengthAdjust="spacingAndGlyphs" textLength="44" x="437" y="317.1997">project</text><text fill="#000000" font-family="sans-serif" font-size="13" lengthAdjust="spacingAndGlyphs" textLength="30" x="444" y="332.3325">from</text><text fill="#000000" font-family="sans-serif" font-size="13" lengthAdjust="spacingAndGlyphs" textLength="58" x="432" y="347.4653">template</text><!--link dartfmt to devProject--><path d="M339.74,247.418 C333.279,272.882 321.27,315.889 306,351 C301.23,361.967 295.249,373.389 289.309,383.868 " fill="none" id="dartfmt-devProject" style="stroke: #46749F; stroke-width: 1.0;"/><polygon fill="#46749F" points="286.769,388.297,294.7161,382.4795,289.2563,383.9596,287.7762,378.4998,286.769,388.297" style="stroke: #46749F; stroke-width: 1.0;"/><polygon fill="#46749F" points="340.958,242.567,334.8871,250.3223,339.7406,247.4165,342.6463,252.2701,340.958,242.567" style="stroke: #46749F; stroke-width: 1.0;"/><text fill="#000000" font-family="sans-serif" font-size="13" lengthAdjust="spacingAndGlyphs" textLength="43" x="329" y="309.5669">format</text><text fill="#000000" font-family="sans-serif" font-size="13" lengthAdjust="spacingAndGlyphs" textLength="26" x="337.5" y="324.6997">dart</text><text fill="#000000" font-family="sans-serif" font-size="13" lengthAdjust="spacingAndGlyphs" textLength="43" x="331" y="339.8325">source</text><!--link devProject to pubServe--><path d="M249.584,462.822 C245.209,474.576 240.61,487.742 237,500 C228.973,527.256 222.198,559.3 218.124,580.21 " fill="none" id="devProject-pubServe" style="stroke: #46749F; stroke-width: 1.0;"/><polygon fill="#46749F" points="217.147,585.276,222.7793,577.1966,218.094,580.3665,214.9241,575.6813,217.147,585.276" style="stroke: #46749F; stroke-width: 1.0;"/><text fill="#000000" font-family="sans-serif" font-size="13" lengthAdjust="spacingAndGlyphs" textLength="50" x="238" y="520.5669">develop</text><text fill="#000000" font-family="sans-serif" font-size="13" lengthAdjust="spacingAndGlyphs" textLength="53" x="238.5" y="535.6997">web app</text><!--link pubServe to devServer--><path d="M214,621.741 C214,649.219 214,703.334 214,737.618 " fill="none" id="pubServe-devServer" style="stroke: #46749F; stroke-width: 1.0;"/><polygon fill="#46749F" points="214,742.943,218,733.943,214,737.943,210,733.943,214,742.943" style="stroke: #46749F; stroke-width: 1.0;"/><!--link dartAnazyler to devProject--><path d="M224.806,247.724 C229.217,272.877 236.921,315.033 245,351 C247.358,361.499 250.145,372.776 252.846,383.268 " fill="none" id="dartAnazyler-devProject" style="stroke: #46749F; stroke-width: 1.0;"/><polygon fill="#46749F" points="254.164,388.349,255.7756,378.6329,252.9083,383.5092,248.032,380.6419,254.164,388.349" style="stroke: #46749F; stroke-width: 1.0;"/><polygon fill="#46749F" points="223.916,242.623,221.5208,252.1762,224.7746,247.5487,229.402,250.8025,223.916,242.623" style="stroke: #46749F; stroke-width: 1.0;"/><text fill="#000000" font-family="sans-serif" font-size="13" lengthAdjust="spacingAndGlyphs" textLength="35" x="254" y="309.5669">static</text><text fill="#000000" font-family="sans-serif" font-size="13" lengthAdjust="spacingAndGlyphs" textLength="51" x="246" y="324.6997">analysis</text><text fill="#000000" font-family="sans-serif" font-size="13" lengthAdjust="spacingAndGlyphs" textLength="19" x="264" y="339.8325">lint</text><!--link devServer to observatory--><path d="M281.829,769.5 C309.671,769.5 341.518,769.5 368.002,769.5 " fill="none" id="devServer-observatory" style="stroke: #46749F; stroke-width: 1.0;"/><polygon fill="#46749F" points="373.225,769.5,364.225,765.5,368.225,769.5,364.225,773.5,373.225,769.5" style="stroke: #46749F; stroke-width: 1.0;"/><polygon fill="#46749F" points="276.722,769.5,285.722,773.5,281.722,769.5,285.722,765.5,276.722,769.5" style="stroke: #46749F; stroke-width: 1.0;"/><text fill="#000000" font-family="sans-serif" font-size="13" lengthAdjust="spacingAndGlyphs" textLength="39" x="303.5" y="747.5669">profile</text><text fill="#000000" font-family="sans-serif" font-size="13" lengthAdjust="spacingAndGlyphs" textLength="60" x="295" y="762.6997">find leaks</text><!--link devProject to pubBuild--><path d="M228.867,456.726 C214.281,468.51 196.85,481.645 180,492 C172.886,496.372 169.426,494.668 163,500 C135.563,522.768 113.15,557.913 100.4324,580.56 " fill="none" id="devProject-pubBuild" style="stroke: #46749F; stroke-width: 1.0;"/><polygon fill="#46749F" points="97.8675,585.194,105.7257,579.2569,100.2889,580.8194,98.7264,575.3827,97.8675,585.194" style="stroke: #46749F; stroke-width: 1.0;"/><polygon fill="#46749F" points="232.903,453.442,223.3979,456.0214,229.0253,456.5985,228.4483,462.2258,232.903,453.442" style="stroke: #46749F; stroke-width: 1.0;"/><text fill="#000000" font-family="sans-serif" font-size="13" lengthAdjust="spacingAndGlyphs" textLength="30" x="173.5" y="520.5669">build</text><text fill="#000000" font-family="sans-serif" font-size="13" lengthAdjust="spacingAndGlyphs" textLength="53" x="164" y="535.6997">web app</text><!--link devProject to pubRun--><path d="M295.164,439.809 C326.267,453.52 375.052,476.193 415,500 C452.764,522.506 493.263,552.103 521.487,573.704 " fill="none" id="devProject-pubRun" style="stroke: #46749F; stroke-width: 1.0;"/><polygon fill="#46749F" points="525.56,576.832,520.8586,568.1777,521.5945,573.7865,515.9858,574.5224,525.56,576.832" style="stroke: #46749F; stroke-width: 1.0;"/><text fill="#000000" font-family="sans-serif" font-size="13" lengthAdjust="spacingAndGlyphs" textLength="24" x="500" y="513.0669">Run</text><text fill="#000000" font-family="sans-serif" font-size="13" lengthAdjust="spacingAndGlyphs" textLength="54" x="485" y="528.1997">cmd line</text><text fill="#000000" font-family="sans-serif" font-size="13" lengthAdjust="spacingAndGlyphs" textLength="24" x="502" y="543.3325">app</text><!--link pubDependencies to devProject--><path d="M91.317,263.862 C103.6317,291.845 124.023,328.642 153,351 C162.909,358.646 168.871,353.274 180,359 C197.286,367.893 214.539,380.527 228.871,392.329 " fill="none" id="pubDependencies-devProject" style="stroke: #46749F; stroke-width: 1.0;"/><polygon fill="#46749F" points="232.834,395.632,228.4827,386.7965,228.9936,392.4302,223.3599,392.9411,232.834,395.632" style="stroke: #46749F; stroke-width: 1.0;"/><polygon fill="#46749F" points="89.2607,259.098,89.1548,268.9463,91.2422,263.6886,96.4998,265.776,89.2607,259.098" style="stroke: #46749F; stroke-width: 1.0;"/><text fill="#000000" font-family="sans-serif" font-size="13" lengthAdjust="spacingAndGlyphs" textLength="51" x="161.5" y="309.5669">Manage</text><text fill="#000000" font-family="sans-serif" font-size="13" lengthAdjust="spacingAndGlyphs" textLength="50" x="162" y="324.6997">libraries</text><text fill="#000000" font-family="sans-serif" font-size="13" lengthAdjust="spacingAndGlyphs" textLength="70" x="154" y="339.8325">and assets</text><!--link pubBuild to webApp--><path d="M87.7385,621.741 C85.7279,649.219 81.7683,703.334 79.2597,737.618 " fill="none" id="pubBuild-webApp" style="stroke: #46749F; stroke-width: 1.0;"/><polygon fill="#46749F" points="78.8701,742.943,83.5177,734.2597,79.2358,737.9564,75.5391,733.6745,78.8701,742.943" style="stroke: #46749F; stroke-width: 1.0;"/><!--link pubRepo to pubDependencies--><path d="M77,135.172 C77,135.4805 77,135.7899 77,136.1001 C77,138.5813 77,141.1133 77,143.6787 C77,148.8096 77,154.0742 77,159.3336 C77,169.8524 77,180.3507 77,189.718 " fill="none" id="pubRepo-pubDependencies" style="stroke: #46749F; stroke-width: 1.0;"/><polygon fill="#46749F" points="77,135.172,73,144.172,77,140.172,81,144.172,77,135.172" style="stroke: #46749F; stroke-width: 1.0;"/><!--link pubRun to vmApp--><path d="M568.765,630.379 C576.196,649.33 585.665,675.848 591,700 C608.749,780.348 613.947,878.421 615.429,921.6804 " fill="none" id="pubRun-vmApp" style="stroke: #46749F; stroke-width: 1.0;"/><polygon fill="#46749F" points="615.6,926.9245,619.3052,917.7992,615.4374,921.9271,611.3095,918.0593,615.6,926.9245" style="stroke: #46749F; stroke-width: 1.0;"/><!--link observatory to dartVM--><path d="M429.192,792.836 C434.282,811.779 443.292,839.121 457,860 C471.3735,881.893 492.4693,902.2852 510.4028,917.4939 C519.3695,925.0983 527.5457,931.4068 533.6958,935.9592 C534.4645,936.5282 535.2016,937.0698 535.9046,937.5831 C536.2561,937.8397 536.5991,938.0892 536.9333,938.3316 " fill="none" id="observatory-dartVM" style="stroke: #46749F; stroke-width: 1.0;"/><polygon fill="#46749F" points="536.9333,938.3316,531.9959,929.8098,532.8857,935.3962,527.2992,936.286,536.9333,938.3316" style="stroke: #46749F; stroke-width: 1.0;"/><polygon fill="#46749F" points="427.86,787.728,426.2605,797.4461,429.1217,792.5662,434.0016,795.4274,427.86,787.728" style="stroke: #46749F; stroke-width: 1.0;"/><text fill="#000000" font-family="sans-serif" font-size="13" lengthAdjust="spacingAndGlyphs" textLength="39" x="466.5" y="841.0669">profile</text><text fill="#000000" font-family="sans-serif" font-size="13" lengthAdjust="spacingAndGlyphs" textLength="60" x="458" y="856.1997">find leaks</text><!--link devProject to pubTest--><path d="M280.792,462.541 C297.269,497.906 321.873,550.715 335.668,580.323 " fill="none" id="devProject-pubTest" style="stroke: #46749F; stroke-width: 1.0;"/><polygon fill="#46749F" points="337.95,585.221,337.7745,575.3737,335.8382,580.6888,330.5231,578.7525,337.95,585.221" style="stroke: #46749F; stroke-width: 1.0;"/><text fill="#000000" font-family="sans-serif" font-size="13" lengthAdjust="spacingAndGlyphs" textLength="85" x="321" y="528.0669">run unit tests</text><!--link pubTest to devServer--><path d="M332.123,621.741 C309.734,649.558 265.372,704.674 237.842,738.878 " fill="none" id="pubTest-devServer" style="stroke: #46749F; stroke-width: 1.0;"/><polygon fill="#46749F" points="234.571,742.943,243.3302,738.4401,237.7061,739.048,237.0982,733.4239,234.571,742.943" style="stroke: #46749F; stroke-width: 1.0;"/><text fill="#000000" font-family="sans-serif" font-size="13" lengthAdjust="spacingAndGlyphs" textLength="50" x="301" y="673.0669">browser</text><text fill="#000000" font-family="sans-serif" font-size="13" lengthAdjust="spacingAndGlyphs" textLength="32" x="314" y="688.1997">tests</text><!--link pubTest to dartVM--><path d="M387.537,621.559 C420.467,637.196 465.113,663.483 491,700 C522.6155,744.597 536.191,804.4025 541.8258,853.642 C542.5301,859.797 543.1104,865.7868 543.5863,871.5612 C543.8242,874.4484 544.0361,877.2818 544.2244,880.055 C544.2714,880.7483 544.317,881.4378 544.3612,882.1235 C544.3832,882.4664 544.405,882.8082 544.4263,883.1491 " fill="none" id="pubTest-dartVM" style="stroke: #46749F; stroke-width: 1.0;"/><polygon fill="#46749F" points="544.4263,883.1491,547.8557,873.9166,544.1136,878.1589,539.8713,874.4169,544.4263,883.1491" style="stroke: #46749F; stroke-width: 1.0;"/><text fill="#000000" font-family="sans-serif" font-size="13" lengthAdjust="spacingAndGlyphs" textLength="20" x="544" y="766.5669">VM</text><text fill="#000000" font-family="sans-serif" font-size="13" lengthAdjust="spacingAndGlyphs" textLength="32" x="542" y="781.6997">tests</text><!--
@startuml

skinparam {

    shadowing false
    arrowColor #46749F

    RectangleBorderColor #CCCCCC
    RectangleBackgroundColor #F5F2F0

    ComponentBorderColor #46749F
    ComponentBackgroundColor #E5ECF0

    UsecaseBorderColor #46749F
    UsecaseBackgroundColor #E5ECF0

    ControlBorderColor #0081C6
    ControlBackgroundColor #55DDCA

    frameBorderColor #0081C6
    packageBorderColor #0081C6

    AgentBorderColor #468847
    AgentBackgroundColor #DFF0D8

}

rectangle {

    control "<size:18>Dart \n <size:18>Project" as devProject

    component [Intellij \nWebStorm \nVS Code \nAtom] as ides [[https://www.dartlang.org/tools#ides]]

    ides <-> devProject

}


cloud "packages" as pubRepo {
    storage "pub repository" [[https://pub.dartlang.org/]]
}

package Browser {
    component [localhost:8091 \ndev web server] as devServer
    agent observatory [[https://dart-lang.github.io/observatory/]]
    file "web app \nartifact" as webApp
}

package "Dart VM" as dartVM #E5ECF0 {
    file "VM app" as vmApp
}

agent "pub get \npub deps\npub upgrade" as pubDependencies [[https://www.dartlang.org/tools/pub]]

usecase "<size:18>Start" as newProject

agent stagehand [[http://stagehand.pub/]]

agent "dart anazyler" as dartAnazyler [[https://www.dartlang.org/tools/analyzer]]

agent dartfmt [[https://pub.dartlang.org/packages/dart_style]]

agent "pub serve" as pubServe [[https://webdev.dartlang.org/tools/pub/pub-serve]]

agent "pub run \npub global" as pubRun [[https://www.dartlang.org/tools/pub/cmd/pub-run]]

agent "pub build" as pubBuild [[https://webdev.dartlang.org/tools/pub/pub-build]]

agent "pub run test" as pubTest [[https://pub.dartlang.org/packages/test]]


newProject - -> stagehand
devProject <-up- stagehand: create \nproject \nfrom \ntemplate
devProject <-left-> dartfmt: format \ndart \nsource
devProject -> pubServe: develop \nweb app
pubServe -> devServer
devProject <-up-> dartAnazyler: static \nanalysis \nlint
devServer <-right-> observatory: profile \nfind leaks
devProject <- -> pubBuild: build \nweb app
devProject -> pubRun: Run \ncmd line \napp
devProject <-left-> pubDependencies: Manage \nlibraries \nand assets
pubBuild -> webApp
pubRepo <- pubDependencies
pubRun -> vmApp
observatory <-> dartVM: profile \nfind leaks
devProject -> pubTest: run unit tests
pubTest -> devServer: browser \n tests
pubTest -> dartVM: VM \n tests


@enduml

PlantUML version 1.2017.12(Wed Apr 26 18:06:36 CEST 2017)
(GPL source distribution)
Java Runtime: OpenJDK Runtime Environment
JVM: OpenJDK 64-Bit Server VM
Java Version: 1.8.0_112-release-736-b21
Operating System: Linux
OS Version: 4.4.0-72-generic
Default Encoding: UTF-8
Language: en
Country: US
--></g></svg>