<?xml version="1.0" encoding="UTF-8" standalone="no"?><svg xmlns="http://www.w3.org/2000/svg" xmlns:xlink="http://www.w3.org/1999/xlink" contentScriptType="application/ecmascript" contentStyleType="text/css" height="827px" preserveAspectRatio="none" style="width:1120px;height:827px;" version="1.1" viewBox="0 0 1120 827" width="1120px" zoomAndPan="magnify"><defs/><g><!--cluster web--><rect fill="#F5F2F0" height="553" style="stroke: #CCCCCC; stroke-width: 2.0;" width="351" x="30" y="32"/><text fill="#000000" font-family="sans-serif" font-size="14" font-weight="bold" lengthAdjust="spacingAndGlyphs" textLength="35" x="188" y="46.9951">Web</text><!--cluster Browser--><rect fill="#E5ECF0" height="90" style="stroke: #0081C6; stroke-width: 2.0;" width="279" x="62" y="463"/><path d="M139,464 L139,472.2969 L129,482.2969 L62,482.2969 " fill="none" style="stroke: #0081C6; stroke-width: 2.0;"/><text fill="#000000" font-family="sans-serif" font-size="14" font-weight="bold" lengthAdjust="spacingAndGlyphs" textLength="67" x="65" y="476.9951">Browser</text><!--cluster mobile--><rect fill="#FFFDCC" height="288.5" style="stroke: #CCCCCC; stroke-width: 2.0;" width="275" x="543" y="56.5"/><text fill="#000000" font-family="sans-serif" font-size="14" font-weight="bold" lengthAdjust="spacingAndGlyphs" textLength="51" x="655" y="71.4951">Mobile</text><!--cluster iOS--><rect fill="#E5ECF0" height="90" style="stroke: #0081C6; stroke-width: 2.0;" width="84" x="583" y="223"/><path d="M619,224 L619,232.2969 L609,242.2969 L583,242.2969 " fill="none" style="stroke: #0081C6; stroke-width: 2.0;"/><text fill="#000000" font-family="sans-serif" font-size="14" font-weight="bold" lengthAdjust="spacingAndGlyphs" textLength="26" x="586" y="236.9951">iOS</text><!--cluster Android--><rect fill="#E5ECF0" height="90" style="stroke: #0081C6; stroke-width: 2.0;" width="90" x="696" y="223"/><path d="M768,224 L768,232.2969 L758,242.2969 L696,242.2969 " fill="none" style="stroke: #0081C6; stroke-width: 2.0;"/><text fill="#000000" font-family="sans-serif" font-size="14" font-weight="bold" lengthAdjust="spacingAndGlyphs" textLength="62" x="699" y="236.9951">Android</text><!--cluster fuchsia--><rect fill="#FDEFE7" height="361" style="stroke: #CCCCCC; stroke-width: 2.0;" width="291" x="437" y="456.5"/><text fill="#000000" font-family="sans-serif" font-size="14" font-weight="bold" lengthAdjust="spacingAndGlyphs" textLength="87" x="539" y="471.4951">Fuchsia OS</text><!--cluster fuchsiaVM--><polygon fill="#E5ECF0" points="550,695.5,618,695.5,625,717.7969,696,717.7969,696,785.5,550,785.5,550,695.5" style="stroke: #0081C6; stroke-width: 2.0;"/><line style="stroke: #0081C6; stroke-width: 2.0;" x1="550" x2="625" y1="717.7969" y2="717.7969"/><text fill="#000000" font-family="sans-serif" font-size="14" font-weight="bold" lengthAdjust="spacingAndGlyphs" textLength="62" x="554" y="710.4951">Dart VM</text><!--cluster server--><rect fill="#F5F2F0" height="386" style="stroke: #CCCCCC; stroke-width: 2.0;" width="351" x="768" y="440"/><text fill="#000000" font-family="sans-serif" font-size="14" font-weight="bold" lengthAdjust="spacingAndGlyphs" textLength="53" x="917" y="454.9951">Server</text><!--cluster Dart VM--><polygon fill="#E5ECF0" points="808,687,876,687,883,709.2969,1087,709.2969,1087,794,808,794,808,687" style="stroke: #0081C6; stroke-width: 2.0;"/><line style="stroke: #0081C6; stroke-width: 2.0;" x1="808" x2="883" y1="709.2969" y2="709.2969"/><text fill="#000000" font-family="sans-serif" font-size="14" font-weight="bold" lengthAdjust="spacingAndGlyphs" textLength="62" x="812" y="701.9951">Dart VM</text><!--entity dartdevc--><a target="_top" xlink:actuate="onRequest" xlink:href="https://webdev.dartlang.org/tools/dartdevc" xlink:show="new" xlink:title="https://webdev.dartlang.org/tools/dartdevc" xlink:type="simple"><rect fill="#DFF0D8" height="36.2969" style="stroke: #468847; stroke-width: 1.5;" width="80" x="225" y="259.5"/><text fill="#000000" font-family="sans-serif" font-size="14" lengthAdjust="spacingAndGlyphs" textLength="60" x="235" y="282.4951">dartdevc</text></a><!--entity dart2js--><a target="_top" xlink:actuate="onRequest" xlink:href="https://webdev.dartlang.org/tools/dart2js" xlink:show="new" xlink:title="https://webdev.dartlang.org/tools/dart2js" xlink:type="simple"><rect fill="#DFF0D8" height="36.2969" style="stroke: #468847; stroke-width: 1.5;" width="67" x="97.5" y="259.5"/><text fill="#000000" font-family="sans-serif" font-size="14" lengthAdjust="spacingAndGlyphs" textLength="47" x="107.5" y="282.4951">dart2js</text></a><!--entity angular--><a target="_top" xlink:actuate="onRequest" xlink:href="https://webdev.dartlang.org/angular" xlink:show="new" xlink:title="https://webdev.dartlang.org/angular" xlink:type="simple"><rect fill="#E5ECF0" height="85.1875" style="stroke: #46749F; stroke-width: 1.5;" width="105" x="135.5" y="75"/><rect fill="#E5ECF0" height="5" style="stroke: #46749F; stroke-width: 1.5;" width="10" x="130.5" y="80"/><rect fill="#E5ECF0" height="5" style="stroke: #46749F; stroke-width: 1.5;" width="10" x="130.5" y="150.1875"/><text fill="#000000" font-family="sans-serif" font-size="14" lengthAdjust="spacingAndGlyphs" textLength="85" x="145.5" y="97.9951">Angular Dart</text><text fill="#000000" font-family="sans-serif" font-size="14" lengthAdjust="spacingAndGlyphs" textLength="72" x="145.5" y="114.292">OverReact</text><text fill="#000000" font-family="sans-serif" font-size="14" lengthAdjust="spacingAndGlyphs" textLength="60" x="145.5" y="130.5889">Stage XL</text><text fill="#000000" font-family="sans-serif" font-size="14" lengthAdjust="spacingAndGlyphs" textLength="62" x="145.5" y="146.8857">dart:html</text></a><!--entity JavaScript--><rect fill="#FEFECE" height="39.2969" style="stroke: #000000; stroke-width: 1.5;" width="95" x="78.5" y="498"/><polygon fill="#FEFECE" points="156.5,503,156.5,517,168.5,517,168.5,509,162.5,503,156.5,503" style="stroke: #000000; stroke-width: 1.5;"/><line style="stroke: #000000; stroke-width: 1.5;" x1="162.5" x2="162.5" y1="503" y2="509"/><line style="stroke: #000000; stroke-width: 1.5;" x1="168.5" x2="162.5" y1="509" y2="509"/><text fill="#000000" font-family="sans-serif" font-size="14" lengthAdjust="spacingAndGlyphs" textLength="65" x="88.5" y="523.9951">JavaScript</text><!--entity EcmaScript6--><rect fill="#FEFECE" height="39.2969" style="stroke: #000000; stroke-width: 1.5;" width="116" x="209" y="498"/><polygon fill="#FEFECE" points="308,503,308,517,320,517,320,509,314,503,308,503" style="stroke: #000000; stroke-width: 1.5;"/><line style="stroke: #000000; stroke-width: 1.5;" x1="314" x2="314" y1="503" y2="509"/><line style="stroke: #000000; stroke-width: 1.5;" x1="320" x2="314" y1="509" y2="509"/><text fill="#000000" font-family="sans-serif" font-size="14" lengthAdjust="spacingAndGlyphs" textLength="86" x="219" y="523.9951">EcmaScript6</text><!--entity flutter--><a target="_top" xlink:actuate="onRequest" xlink:href="https://flutter.io" xlink:show="new" xlink:title="https://flutter.io" xlink:type="simple"><rect fill="#E5ECF0" height="36.2969" style="stroke: #46749F; stroke-width: 1.5;" width="64" x="658" y="99.5"/><rect fill="#E5ECF0" height="5" style="stroke: #46749F; stroke-width: 1.5;" width="10" x="653" y="104.5"/><rect fill="#E5ECF0" height="5" style="stroke: #46749F; stroke-width: 1.5;" width="10" x="653" y="125.7969"/><text fill="#000000" font-family="sans-serif" font-size="14" lengthAdjust="spacingAndGlyphs" textLength="44" x="668" y="122.4951">Flutter</text></a><!--entity IPA--><rect fill="#FEFECE" height="39.2969" style="stroke: #000000; stroke-width: 1.5;" width="51" x="599.5" y="258"/><polygon fill="#FEFECE" points="633.5,263,633.5,277,645.5,277,645.5,269,639.5,263,633.5,263" style="stroke: #000000; stroke-width: 1.5;"/><line style="stroke: #000000; stroke-width: 1.5;" x1="639.5" x2="639.5" y1="263" y2="269"/><line style="stroke: #000000; stroke-width: 1.5;" x1="645.5" x2="639.5" y1="269" y2="269"/><text fill="#000000" font-family="sans-serif" font-size="14" lengthAdjust="spacingAndGlyphs" textLength="21" x="609.5" y="283.9951">IPA</text><!--entity APK--><rect fill="#FEFECE" height="39.2969" style="stroke: #000000; stroke-width: 1.5;" width="57" x="712.5" y="258"/><polygon fill="#FEFECE" points="752.5,263,752.5,277,764.5,277,764.5,269,758.5,263,752.5,263" style="stroke: #000000; stroke-width: 1.5;"/><line style="stroke: #000000; stroke-width: 1.5;" x1="758.5" x2="758.5" y1="263" y2="269"/><line style="stroke: #000000; stroke-width: 1.5;" x1="764.5" x2="758.5" y1="269" y2="269"/><text fill="#000000" font-family="sans-serif" font-size="14" lengthAdjust="spacingAndGlyphs" textLength="27" x="722.5" y="283.9951">APK</text><!--entity fuchsiaUI--><a target="_top" xlink:actuate="onRequest" xlink:href="https://fuchsia.googlesource.com/docs/+/master/book.md" xlink:show="new" xlink:title="https://fuchsia.googlesource.com/docs/+/master/book.md" xlink:type="simple"><rect fill="#E5ECF0" height="36.2969" style="stroke: #46749F; stroke-width: 1.5;" width="90" x="480" y="499.5"/><rect fill="#E5ECF0" height="5" style="stroke: #46749F; stroke-width: 1.5;" width="10" x="475" y="504.5"/><rect fill="#E5ECF0" height="5" style="stroke: #46749F; stroke-width: 1.5;" width="10" x="475" y="525.7969"/><text fill="#000000" font-family="sans-serif" font-size="14" lengthAdjust="spacingAndGlyphs" textLength="70" x="490" y="522.4951">Fuchsia UI</text></a><!--entity fuchsiaFlutter--><rect fill="#E5ECF0" height="36.2969" style="stroke: #46749F; stroke-width: 1.5;" width="64" x="640" y="499.5"/><rect fill="#E5ECF0" height="5" style="stroke: #46749F; stroke-width: 1.5;" width="10" x="635" y="504.5"/><rect fill="#E5ECF0" height="5" style="stroke: #46749F; stroke-width: 1.5;" width="10" x="635" y="525.7969"/><text fill="#000000" font-family="sans-serif" font-size="14" lengthAdjust="spacingAndGlyphs" textLength="44" x="650" y="522.4951">Flutter</text><!--entity fuchsiaApp--><rect fill="#FEFECE" height="39.2969" style="stroke: #000000; stroke-width: 1.5;" width="114" x="566" y="730.5"/><polygon fill="#FEFECE" points="663,735.5,663,749.5,675,749.5,675,741.5,669,735.5,663,735.5" style="stroke: #000000; stroke-width: 1.5;"/><line style="stroke: #000000; stroke-width: 1.5;" x1="669" x2="669" y1="735.5" y2="741.5"/><line style="stroke: #000000; stroke-width: 1.5;" x1="675" x2="669" y1="741.5" y2="741.5"/><text fill="#000000" font-family="sans-serif" font-size="14" lengthAdjust="spacingAndGlyphs" textLength="84" x="576" y="756.4951">Fuchsia App</text><!--entity aqueduct--><a target="_top" xlink:actuate="onRequest" xlink:href="https://aqueduct.io/" xlink:show="new" xlink:title="https://aqueduct.io/" xlink:type="simple"><rect fill="#E5ECF0" height="68.8906" style="stroke: #46749F; stroke-width: 1.5;" width="88" x="966" y="483"/><rect fill="#E5ECF0" height="5" style="stroke: #46749F; stroke-width: 1.5;" width="10" x="961" y="488"/><rect fill="#E5ECF0" height="5" style="stroke: #46749F; stroke-width: 1.5;" width="10" x="961" y="541.8906"/><text fill="#000000" font-family="sans-serif" font-size="14" lengthAdjust="spacingAndGlyphs" textLength="67" x="976" y="505.9951">Aqueduct</text><text fill="#000000" font-family="sans-serif" font-size="14" lengthAdjust="spacingAndGlyphs" textLength="39" x="976" y="522.292">Angel</text><text fill="#000000" font-family="sans-serif" font-size="14" lengthAdjust="spacingAndGlyphs" textLength="68" x="976" y="538.5889">Redstone</text></a><!--entity cmdlinePackages--><a target="_top" xlink:actuate="onRequest" xlink:href="https://www.dartlang.org/tutorials/dart-vm/cmdline" xlink:show="new" xlink:title="https://www.dartlang.org/tutorials/dart-vm/cmdline" xlink:type="simple"><rect fill="#E5ECF0" height="68.8906" style="stroke: #46749F; stroke-width: 1.5;" width="83" x="840.5" y="483"/><rect fill="#E5ECF0" height="5" style="stroke: #46749F; stroke-width: 1.5;" width="10" x="835.5" y="488"/><rect fill="#E5ECF0" height="5" style="stroke: #46749F; stroke-width: 1.5;" width="10" x="835.5" y="541.8906"/><text fill="#000000" font-family="sans-serif" font-size="14" lengthAdjust="spacingAndGlyphs" textLength="44" x="850.5" y="505.9951">dart:io</text><text fill="#000000" font-family="sans-serif" font-size="14" lengthAdjust="spacingAndGlyphs" textLength="63" x="850.5" y="522.292">dart:path</text><text fill="#000000" font-family="sans-serif" font-size="14" lengthAdjust="spacingAndGlyphs" textLength="62" x="850.5" y="538.5889">dart:args</text></a><!--entity cmdline--><rect fill="#FEFECE" height="55.5938" style="stroke: #000000; stroke-width: 1.5;" width="116" x="824" y="722"/><polygon fill="#FEFECE" points="923,727,923,741,935,741,935,733,929,727,923,727" style="stroke: #000000; stroke-width: 1.5;"/><line style="stroke: #000000; stroke-width: 1.5;" x1="929" x2="929" y1="727" y2="733"/><line style="stroke: #000000; stroke-width: 1.5;" x1="935" x2="929" y1="733" y2="733"/><text fill="#000000" font-family="sans-serif" font-size="14" lengthAdjust="spacingAndGlyphs" textLength="86" x="834" y="747.9951">cmdline utils</text><text fill="#000000" font-family="sans-serif" font-size="14" lengthAdjust="spacingAndGlyphs" textLength="46" x="834" y="764.292">scripts</text><!--entity enterprise--><path d="M975.5,737.5 C975.5,727.5 1023,727.5 1023,727.5 C1023,727.5 1070.5,727.5 1070.5,737.5 L1070.5,762.7969 C1070.5,772.7969 1023,772.7969 1023,772.7969 C1023,772.7969 975.5,772.7969 975.5,762.7969 L975.5,737.5 " fill="#FEFECE" style="stroke: #000000; stroke-width: 1.5;"/><path d="M975.5,737.5 C975.5,747.5 1023,747.5 1023,747.5 C1023,747.5 1070.5,747.5 1070.5,737.5 " fill="none" style="stroke: #000000; stroke-width: 1.5;"/><text fill="#000000" font-family="sans-serif" font-size="14" lengthAdjust="spacingAndGlyphs" textLength="75" x="985.5" y="764.4951">Server App</text><!--entity source--><ellipse cx="462" cy="254" fill="#55DDCA" rx="12" ry="12" style="stroke: #0081C6; stroke-width: 2.0;"/><polygon fill="#0081C6" points="458,242,464,237,462,242,464,247,458,242" style="stroke: #0081C6; stroke-width: 1.0;"/><text fill="#000000" font-family="sans-serif" font-size="20" lengthAdjust="spacingAndGlyphs" textLength="114" x="405" y="288.5645">Dart Target</text><text fill="#000000" font-family="sans-serif" font-size="20" lengthAdjust="spacingAndGlyphs" textLength="95" x="405" y="311.8457">Platforms</text><!--link angular to dart2js--><path d="M157.746,160.07 C152.049,169.528 146.72,179.804 143,190 C135.372,210.911 132.546,236.286 131.524,254.128 " fill="none" id="angular-dart2js" style="stroke: #46749F; stroke-width: 1.0;"/><polygon fill="#46749F" points="131.261,259.41,135.7036,250.62,131.5096,254.4162,127.7135,250.2222,131.261,259.41" style="stroke: #46749F; stroke-width: 1.0;"/><text fill="#000000" font-family="sans-serif" font-size="13" lengthAdjust="spacingAndGlyphs" textLength="68" x="144" y="203.0669">production</text><!--link angular to dartdevc--><path d="M208.231,160.013 C223.019,190.356 242.488,230.306 254.356,254.659 " fill="none" id="angular-dartdevc" style="stroke: #46749F; stroke-width: 1.0;"/><polygon fill="#46749F" points="256.625,259.314,256.2784,249.4712,254.4348,254.8192,249.0868,252.9756,256.625,259.314" style="stroke: #46749F; stroke-width: 1.0;"/><text fill="#000000" font-family="sans-serif" font-size="13" lengthAdjust="spacingAndGlyphs" textLength="84" x="233" y="203.0669">development</text><!--link dart2js to JavaScript--><path d="M130.64,295.616 C129.763,337.386 127.51,444.623 126.501,492.634 " fill="none" id="dart2js-JavaScript" style="stroke: #46749F; stroke-width: 1.0;"/><polygon fill="#46749F" points="126.39,497.914,130.5769,488.9994,126.4943,492.9151,122.5786,488.8325,126.39,497.914" style="stroke: #46749F; stroke-width: 1.0;"/><text fill="#000000" font-family="sans-serif" font-size="13" lengthAdjust="spacingAndGlyphs" textLength="24" x="144" y="382.0669">fast</text><text fill="#000000" font-family="sans-serif" font-size="13" lengthAdjust="spacingAndGlyphs" textLength="50" x="135" y="397.1997">minified</text><text fill="#000000" font-family="sans-serif" font-size="13" lengthAdjust="spacingAndGlyphs" textLength="12" x="154" y="412.3325">JS</text><!--link dartdevc to EcmaScript6--><path d="M265.144,295.616 C265.495,337.386 266.396,444.623 266.799,492.634 " fill="none" id="dartdevc-EcmaScript6" style="stroke: #46749F; stroke-width: 1.0;"/><polygon fill="#46749F" points="266.844,497.914,270.7693,488.8812,266.8026,492.9142,262.7696,488.9475,266.844,497.914" style="stroke: #46749F; stroke-width: 1.0;"/><text fill="#000000" font-family="sans-serif" font-size="13" lengthAdjust="spacingAndGlyphs" textLength="45" x="275.5" y="382.0669">human</text><text fill="#000000" font-family="sans-serif" font-size="13" lengthAdjust="spacingAndGlyphs" textLength="56" x="272" y="397.1997">readable</text><text fill="#000000" font-family="sans-serif" font-size="13" lengthAdjust="spacingAndGlyphs" textLength="12" x="296" y="412.3325">JS</text><!--link flutter to IPA--><path d="M677.107,135.81 C670.694,143.739 662.505,152.923 654,160 C633.785,176.82 616.056,167.173 603,190 C591.724,209.716 600.573,235.212 610.198,253.406 " fill="none" id="flutter-IPA" style="stroke: #46749F; stroke-width: 1.0;"/><polygon fill="#46749F" points="612.649,257.866,611.8187,248.0522,610.2403,253.4844,604.8081,251.9061,612.649,257.866" style="stroke: #46749F; stroke-width: 1.0;"/><text fill="#000000" font-family="sans-serif" font-size="13" lengthAdjust="spacingAndGlyphs" textLength="175" x="604" y="203.0669">AOT compile to native code</text><!--link flutter to APK--><path d="M722.45,132.301 C745.374,143.988 774.354,163.152 788,190 C799.159,211.955 782.863,236.601 766.485,253.952 " fill="none" id="flutter-APK" style="stroke: #46749F; stroke-width: 1.0;"/><polygon fill="#46749F" points="762.78,257.759,771.9237,254.0994,766.2673,254.1759,766.1908,248.5196,762.78,257.759" style="stroke: #46749F; stroke-width: 1.0;"/><!--link fuchsiaUI to fuchsiaFlutter--><path d="M570.076,517.5 C591.577,517.5 613.078,517.5 634.58,517.5 " fill="none" id="fuchsiaUI-fuchsiaFlutter" style="stroke: #46749F; stroke-width: 1.0;"/><polygon fill="#46749F" points="639.751,517.5,630.751,513.5,634.751,517.5,630.751,521.5,639.751,517.5" style="stroke: #46749F; stroke-width: 1.0;"/><!--link fuchsiaFlutter to fuchsiaApp--><path d="M668.317,535.825 C659.659,576.553 637.997,678.451 628.09,725.057 " fill="none" id="fuchsiaFlutter-fuchsiaApp" style="stroke: #46749F; stroke-width: 1.0;"/><polygon fill="#46749F" points="626.998,730.192,632.78,722.219,628.0365,725.301,624.9545,720.5575,626.998,730.192" style="stroke: #46749F; stroke-width: 1.0;"/><!--link aqueduct to enterprise--><path d="M1011.89,552.017 C1014.48,597.997 1019.09,679.736 1021.48,722.01 " fill="none" id="aqueduct-enterprise" style="stroke: #46749F; stroke-width: 1.0;"/><polygon fill="#46749F" points="1021.77,727.211,1025.2579,718.0004,1021.489,722.2189,1017.2706,718.45,1021.77,727.211" style="stroke: #46749F; stroke-width: 1.0;"/><text fill="#000000" font-family="sans-serif" font-size="13" lengthAdjust="spacingAndGlyphs" textLength="32" x="1042.5" y="622.0669">REST</text><text fill="#000000" font-family="sans-serif" font-size="13" lengthAdjust="spacingAndGlyphs" textLength="29" x="1046" y="637.1997">ORM</text><text fill="#000000" font-family="sans-serif" font-size="13" lengthAdjust="spacingAndGlyphs" textLength="75" x="1023" y="652.3325">PostgreSQL</text><text fill="#000000" font-family="sans-serif" font-size="13" lengthAdjust="spacingAndGlyphs" textLength="62" x="1029.5" y="667.4653">MongoDB</text><!--link cmdlinePackages to cmdline--><path d="M882,552.017 C882,596.171 882,673.3 882,716.791 " fill="none" id="cmdlinePackages-cmdline" style="stroke: #46749F; stroke-width: 1.0;"/><polygon fill="#46749F" points="882,721.923,886,712.923,882,716.923,878,712.923,882,721.923" style="stroke: #46749F; stroke-width: 1.0;"/><!--link mobile to source--><path d="M542.8971,132.8848 C542.7578,133.1322 542.6169,133.3822 542.4747,133.6348 C542.1901,134.1399 541.8996,134.6556 541.6035,135.1812 C541.0113,136.2326 540.3964,137.3243 539.7604,138.4534 C538.4883,140.7116 537.1318,143.1198 535.7034,145.6556 C532.8466,150.7272 529.7022,156.3093 526.3709,162.2234 C513.0455,185.8795 496.7285,214.8465 483.857,237.697 " fill="none" id="mobile-source" style="stroke: #46749F; stroke-width: 1.0;"/><polygon fill="#FFFFFF" points="542.8971,132.8848,527.4732,146.0037,539.6712,152.8746,542.8971,132.8848" style="stroke: #46749F; stroke-width: 1.0;"/><!--link web to source--><path d="M381.1029,132.8848 C381.2422,133.1322 381.3831,133.3822 381.5253,133.6348 C381.8099,134.1399 382.1004,134.6556 382.3965,135.1812 C382.9887,136.2326 383.6036,137.3243 384.2396,138.4534 C385.5117,140.7116 386.8682,143.1198 388.2966,145.6556 C391.1534,150.7272 394.2978,156.3093 397.6291,162.2234 C410.9545,185.8795 427.2715,214.8465 440.143,237.697 " fill="none" id="web-source" style="stroke: #46749F; stroke-width: 1.0;"/><polygon fill="#FFFFFF" points="381.1029,132.8848,384.3288,152.8746,396.5268,146.0037,381.1029,132.8848" style="stroke: #46749F; stroke-width: 1.0;"/><!--link source to fuchsia--><path d="M459.25,317.003 C456.882,350.1565 453.393,399.0025 450.4601,440.0622 C450.0935,445.1947 449.7356,450.2055 449.3896,455.0488 C449.368,455.3515 449.3464,455.6536 449.3249,455.955 " fill="none" id="source-fuchsia" style="stroke: #46749F; stroke-width: 1.0;"/><polygon fill="#FFFFFF" points="449.3249,455.955,457.6608,437.502,443.6964,436.5045,449.3249,455.955" style="stroke: #46749F; stroke-width: 1.0;"/><!--link source to server--><path d="M514.377,317.031 C535.232,331.617 559.763,347.858 583,361 C641.335,393.992 670.002,379.372 720,424 C737.6465,439.751 751.4883,462.405 760.9956,481.3513 C763.3725,486.0878 765.4784,490.5926 767.3052,494.6999 C767.5335,495.2134 767.7575,495.7206 767.9771,496.2212 " fill="none" id="source-server" style="stroke: #46749F; stroke-width: 1.0;"/><polygon fill="#FFFFFF" points="767.9771,496.2212,766.7555,476.0096,753.9347,481.6332,767.9771,496.2212" style="stroke: #46749F; stroke-width: 1.0;"/><!--
@startuml

skinparam {

    shadowing false
    arrowColor #46749F

    RectangleBorderColor #CCCCCC
    RectangleBackgroundColor #F5F2F0

    ComponentBorderColor #46749F
    ComponentBackgroundColor #E5ECF0

    UsecaseBorderColor #46749F
    UsecaseBackgroundColor #E5ECF0

    ControlBorderColor #0081C6
    ControlBackgroundColor #55DDCA

    frameBorderColor #0081C6
    packageBorderColor #0081C6

    noteBorderColor #468847
    noteBackgroundColor #DFF0D8

    AgentBorderColor #468847
    AgentBackgroundColor #DFF0D8

}


control "<size:20>Dart Target</size> \n <size:20>Platforms</size>" as source


rectangle "Web" as web {

    agent dartdevc [[https://webdev.dartlang.org/tools/dartdevc]]

    agent dart2js [[https://webdev.dartlang.org/tools/dart2js]]

    [Angular Dart \n OverReact \n Stage XL \n dart:html] as angular [[https://webdev.dartlang.org/angular]]
    angular -down-> dart2js: production
    angular -down-> dartdevc: development

    frame Browser #E5ECF0 {
        artifact JavaScript
        artifact EcmaScript6
    }

    dart2js -> JavaScript: fast \n minified\n JS
    dartdevc -> EcmaScript6: human \n readable \n JS
}

rectangle "Mobile" as mobile #FFFDCC {
    [Flutter] as flutter [[https://flutter.io]]

    frame iOS #E5ECF0 {
        artifact IPA
    }

    frame Android #E5ECF0 {
        artifact APK
    }

    flutter - -> IPA: AOT compile to native code
    flutter - -> APK
}

rectangle "Fuchsia OS" as fuchsia #FDEFE7 {
    [Fuchsia UI] as fuchsiaUI [[https://fuchsia.googlesource.com/docs/+/master/book.md]]

    [Flutter] as fuchsiaFlutter

    package "Dart VM" as fuchsiaVM #E5ECF0 {
        artifact fuchsiaApp [
            Fuchsia App
        ]
    }

    fuchsiaUI -> fuchsiaFlutter
    fuchsiaFlutter -> fuchsiaApp

}

rectangle "Server" as server {
    [Aqueduct \n Angel \nRedstone] as aqueduct [[https://aqueduct.io/]]

    [dart:io \n dart:path \n dart:args] as cmdlinePackages [[https://www.dartlang.org/tutorials/dart-vm/cmdline]]

    package "Dart VM" #E5ECF0 {
        artifact cmdline [
            cmdline utils
            scripts
        ]
        database "Server App" as enterprise
    }

    aqueduct -> enterprise: REST \n ORM \n PostgreSQL \nMongoDB
    cmdlinePackages -> cmdline
}


source -up-|> mobile
source -up-|> web
source -down-|> fuchsia
source -down-|> server

@enduml

PlantUML version 1.2017.12(Wed Apr 26 18:06:36 CEST 2017)
(GPL source distribution)
Java Runtime: OpenJDK Runtime Environment
JVM: OpenJDK 64-Bit Server VM
Java Version: 1.8.0_112-release-736-b21
Operating System: Linux
OS Version: 4.4.0-72-generic
Default Encoding: UTF-8
Language: en
Country: US
--></g></svg>