<?xml version="1.0" encoding="UTF-8" standalone="no"?><svg xmlns="http://www.w3.org/2000/svg" xmlns:xlink="http://www.w3.org/1999/xlink" contentScriptType="application/ecmascript" contentStyleType="text/css" height="417px" preserveAspectRatio="none" style="width:1019px;height:417px;" version="1.1" viewBox="0 0 1019 417" width="1019px" zoomAndPan="magnify"><defs/><g><!--cluster reactBox--><rect fill="#F5F2F0" height="211.5" style="stroke: #CCCCCC; stroke-width: 2.0;" width="333" x="30" y="204.5"/><text fill="#000000" font-family="sans-serif" font-size="14" font-weight="bold" lengthAdjust="spacingAndGlyphs" textLength="0" x="199" y="219.4951"/><!--entity overReact--><a target="_top" xlink:actuate="onRequest" xlink:href="https://pub.dartlang.org/packages/over_react" xlink:show="new" xlink:title="https://pub.dartlang.org/packages/over_react" xlink:type="simple"><rect fill="#E5ECF0" height="36.2969" style="stroke: #46749F; stroke-width: 1.5;" width="92" x="231" y="247.5"/><rect fill="#E5ECF0" height="5" style="stroke: #46749F; stroke-width: 1.5;" width="10" x="226" y="252.5"/><rect fill="#E5ECF0" height="5" style="stroke: #46749F; stroke-width: 1.5;" width="10" x="226" y="273.7969"/><text fill="#000000" font-family="sans-serif" font-size="14" lengthAdjust="spacingAndGlyphs" textLength="72" x="241" y="270.4951">OverReact</text></a><polygon fill="#DFF0D8" points="215.5,352,215.5,392.2656,338.5,392.2656,338.5,362,328.5,352,215.5,352" style="stroke: #468847; stroke-width: 1.0;"/><polygon fill="#DFF0D8" points="215.5,352,215.5,392.2656,338.5,392.2656,338.5,362,328.5,352,281,352,277,283.756,273,352,215.5,352" style="stroke: #468847; stroke-width: 1.0;"/><line style="stroke: #468847; stroke-width: 1.0;" x1="328.5" x2="328.5" y1="352" y2="362"/><line style="stroke: #468847; stroke-width: 1.0;" x1="338.5" x2="328.5" y1="362" y2="362"/><text fill="#000000" font-family="sans-serif" font-size="13" lengthAdjust="spacingAndGlyphs" textLength="98" x="221.5" y="369.0669">Statically typed</text><text fill="#000000" font-family="sans-serif" font-size="13" lengthAdjust="spacingAndGlyphs" textLength="36" x="221.5" y="384.1997">React</text><!--entity react--><a target="_top" xlink:actuate="onRequest" xlink:href="https://pub.dartlang.org/packages/react" xlink:show="new" xlink:title="https://pub.dartlang.org/packages/react" xlink:type="simple"><rect fill="#E5ECF0" height="36.2969" style="stroke: #46749F; stroke-width: 1.5;" width="60" x="91" y="247.5"/><rect fill="#E5ECF0" height="5" style="stroke: #46749F; stroke-width: 1.5;" width="10" x="86" y="252.5"/><rect fill="#E5ECF0" height="5" style="stroke: #46749F; stroke-width: 1.5;" width="10" x="86" y="273.7969"/><text fill="#000000" font-family="sans-serif" font-size="14" lengthAdjust="spacingAndGlyphs" textLength="40" x="101" y="270.4951">React</text></a><polygon fill="#DFF0D8" points="62,352,62,392.2656,180,392.2656,180,362,170,352,62,352" style="stroke: #468847; stroke-width: 1.0;"/><polygon fill="#DFF0D8" points="62,352,62,392.2656,180,392.2656,180,362,170,352,125,352,121,283.756,117,352,62,352" style="stroke: #468847; stroke-width: 1.0;"/><line style="stroke: #468847; stroke-width: 1.0;" x1="170" x2="170" y1="352" y2="362"/><line style="stroke: #468847; stroke-width: 1.0;" x1="180" x2="170" y1="362" y2="362"/><text fill="#000000" font-family="sans-serif" font-size="13" lengthAdjust="spacingAndGlyphs" textLength="93" x="68" y="369.0669">Direct wrapper</text><text fill="#000000" font-family="sans-serif" font-size="13" lengthAdjust="spacingAndGlyphs" textLength="64" x="68" y="384.1997">of ReactJS</text><!--entity webDev--><ellipse cx="655" cy="18.5" fill="#FEFECE" rx="8" ry="8" style="stroke: #A80036; stroke-width: 2.0;"/><path d="M655,26.5 L655,53.5 M642,34.5 L668,34.5 M655,53.5 L642,68.5 M655,53.5 L668,68.5 " fill="#FEFECE" style="stroke: #A80036; stroke-width: 2.0;"/><text fill="#000000" font-family="sans-serif" font-size="20" lengthAdjust="spacingAndGlyphs" textLength="94" x="610.5" y="90.0645">Dart Web</text><text fill="#000000" font-family="sans-serif" font-size="20" lengthAdjust="spacingAndGlyphs" textLength="101" x="604.5" y="113.3457">Developer</text><!--entity angular--><a target="_top" xlink:actuate="onRequest" xlink:href="https://webdev.dartlang.org/angular" xlink:show="new" xlink:title="https://webdev.dartlang.org/angular" xlink:type="simple"><rect fill="#E5ECF0" height="36.2969" style="stroke: #46749F; stroke-width: 1.5;" width="105" x="524.5" y="247.5"/><rect fill="#E5ECF0" height="5" style="stroke: #46749F; stroke-width: 1.5;" width="10" x="519.5" y="252.5"/><rect fill="#E5ECF0" height="5" style="stroke: #46749F; stroke-width: 1.5;" width="10" x="519.5" y="273.7969"/><text fill="#000000" font-family="sans-serif" font-size="14" lengthAdjust="spacingAndGlyphs" textLength="85" x="534.5" y="270.4951">Angular Dart</text></a><polygon fill="#DFF0D8" points="387.5,344.5,387.5,399.8984,658.5,399.8984,658.5,354.5,648.5,344.5,387.5,344.5" style="stroke: #468847; stroke-width: 1.0;"/><polygon fill="#DFF0D8" points="387.5,344.5,387.5,399.8984,658.5,399.8984,658.5,354.5,648.5,344.5,540.797,344.5,568.083,283.756,532.797,344.5,387.5,344.5" style="stroke: #468847; stroke-width: 1.0;"/><line style="stroke: #468847; stroke-width: 1.0;" x1="648.5" x2="648.5" y1="344.5" y2="354.5"/><line style="stroke: #468847; stroke-width: 1.0;" x1="658.5" x2="648.5" y1="354.5" y2="354.5"/><text fill="#000000" font-family="sans-serif" font-size="13" lengthAdjust="spacingAndGlyphs" textLength="240" x="393.5" y="361.5669">Components, Directives, Templates...</text><text fill="#000000" font-family="sans-serif" font-size="13" lengthAdjust="spacingAndGlyphs" textLength="184" x="393.5" y="376.6997">similar to TypeScript version,</text><text fill="#000000" font-family="sans-serif" font-size="13" lengthAdjust="spacingAndGlyphs" textLength="250" x="393.5" y="391.8325">but with Dart language power &amp; beauty</text><!--entity dartHtml--><a target="_top" xlink:actuate="onRequest" xlink:href="https://webdev.dartlang.org/guides/web-programming#low-level-html" xlink:show="new" xlink:title="https://webdev.dartlang.org/guides/web-programming#low-level-html" xlink:type="simple"><rect fill="#E5ECF0" height="36.2969" style="stroke: #46749F; stroke-width: 1.5;" width="82" x="693" y="247.5"/><rect fill="#E5ECF0" height="5" style="stroke: #46749F; stroke-width: 1.5;" width="10" x="688" y="252.5"/><rect fill="#E5ECF0" height="5" style="stroke: #46749F; stroke-width: 1.5;" width="10" x="688" y="273.7969"/><text fill="#000000" font-family="sans-serif" font-size="14" lengthAdjust="spacingAndGlyphs" textLength="62" x="703" y="270.4951">dart:html</text></a><polygon fill="#DFF0D8" points="694,344.5,694,399.8984,828,399.8984,828,354.5,818,344.5,694,344.5" style="stroke: #468847; stroke-width: 1.0;"/><polygon fill="#DFF0D8" points="694,344.5,694,399.8984,828,399.8984,828,354.5,818,344.5,758.102,344.5,738.459,283.756,750.102,344.5,694,344.5" style="stroke: #468847; stroke-width: 1.0;"/><line style="stroke: #468847; stroke-width: 1.0;" x1="818" x2="818" y1="344.5" y2="354.5"/><line style="stroke: #468847; stroke-width: 1.0;" x1="828" x2="818" y1="354.5" y2="354.5"/><text fill="#000000" font-family="sans-serif" font-size="13" lengthAdjust="spacingAndGlyphs" textLength="96" x="700" y="361.5669">Low level HTML</text><text fill="#000000" font-family="sans-serif" font-size="13" lengthAdjust="spacingAndGlyphs" textLength="113" x="700" y="376.6997">DOM modification</text><text fill="#000000" font-family="sans-serif" font-size="13" lengthAdjust="spacingAndGlyphs" textLength="64" x="700" y="391.8325">jquery like</text><!--entity stageXL--><a target="_top" xlink:actuate="onRequest" xlink:href="http://www.stagexl.org/" xlink:show="new" xlink:title="http://www.stagexl.org/" xlink:type="simple"><rect fill="#E5ECF0" height="36.2969" style="stroke: #46749F; stroke-width: 1.5;" width="80" x="856" y="247.5"/><rect fill="#E5ECF0" height="5" style="stroke: #46749F; stroke-width: 1.5;" width="10" x="851" y="252.5"/><rect fill="#E5ECF0" height="5" style="stroke: #46749F; stroke-width: 1.5;" width="10" x="851" y="273.7969"/><text fill="#000000" font-family="sans-serif" font-size="14" lengthAdjust="spacingAndGlyphs" textLength="60" x="866" y="270.4951">Stage XL</text></a><polygon fill="#DFF0D8" points="863.5,352,863.5,392.2656,1018.5,392.2656,1018.5,362,1008.5,352,863.5,352" style="stroke: #468847; stroke-width: 1.0;"/><polygon fill="#DFF0D8" points="863.5,352,863.5,392.2656,1018.5,392.2656,1018.5,362,1008.5,352,936.795,352,903.431,283.756,928.795,352,863.5,352" style="stroke: #468847; stroke-width: 1.0;"/><line style="stroke: #468847; stroke-width: 1.0;" x1="1008.5" x2="1008.5" y1="352" y2="362"/><line style="stroke: #468847; stroke-width: 1.0;" x1="1018.5" x2="1008.5" y1="362" y2="362"/><text fill="#000000" font-family="sans-serif" font-size="13" lengthAdjust="spacingAndGlyphs" textLength="97" x="869.5" y="369.0669">2D Web games</text><text fill="#000000" font-family="sans-serif" font-size="13" lengthAdjust="spacingAndGlyphs" textLength="134" x="869.5" y="384.1997">Adobe Flash like APIs</text><!--link webDev to angular--><path d="M624.533,118.889 C619.668,128.596 614.945,138.73 611,148.5 C598.215,180.159 587.948,218.43 582.162,242.121 " fill="none" id="webDev-angular" style="stroke: #46749F; stroke-width: 1.0;"/><polygon fill="#46749F" points="580.927,247.237,586.9284,239.4278,582.101,242.3768,579.152,237.5494,580.927,247.237" style="stroke: #46749F; stroke-width: 1.0;"/><text fill="#000000" font-family="sans-serif" font-size="13" lengthAdjust="spacingAndGlyphs" textLength="65" x="612" y="169.0669">enterprise</text><!--link webDev to reactBox--><path d="M604.38,67.335 C472.073,75.854 120.996,105.936 46,188.5 C43.2346,191.5444 41.0217,194.9659 39.268,198.6285 C38.3911,200.4598 37.629,202.3515 36.9701,204.2864 " fill="none" id="webDev-reactBox" style="stroke: #46749F; stroke-width: 1.0;"/><polygon fill="#46749F" points="36.9701,204.2864,43.6579,197.0563,38.5819,199.5533,36.085,194.4774,36.9701,204.2864" style="stroke: #46749F; stroke-width: 1.0;"/><text fill="#000000" font-family="sans-serif" font-size="13" lengthAdjust="spacingAndGlyphs" textLength="33" x="109" y="161.5669">react</text><text fill="#000000" font-family="sans-serif" font-size="13" lengthAdjust="spacingAndGlyphs" textLength="21" x="117" y="176.6997">like</text><!--link webDev to stageXL--><path d="M705.521,106.427 C756.26,148.533 832.331,211.663 871.202,243.921 " fill="none" id="webDev-stageXL" style="stroke: #46749F; stroke-width: 1.0;"/><polygon fill="#46749F" points="875.3,247.322,870.929,238.4962,871.4525,244.1288,865.8199,244.6523,875.3,247.322" style="stroke: #46749F; stroke-width: 1.0;"/><text fill="#000000" font-family="sans-serif" font-size="13" lengthAdjust="spacingAndGlyphs" textLength="44" x="790" y="169.0669">games</text><!--link webDev to dartHtml--><path d="M676.379,118.623 C692.448,159.304 713.625,212.919 725.314,242.51 " fill="none" id="webDev-dartHtml" style="stroke: #46749F; stroke-width: 1.0;"/><polygon fill="#46749F" points="727.244,247.397,727.6598,237.5569,725.408,242.7463,720.2186,240.4945,727.244,247.397" style="stroke: #46749F; stroke-width: 1.0;"/><text fill="#000000" font-family="sans-serif" font-size="13" lengthAdjust="spacingAndGlyphs" textLength="20" x="702.5" y="161.5669">low</text><text fill="#000000" font-family="sans-serif" font-size="13" lengthAdjust="spacingAndGlyphs" textLength="29" x="700" y="176.6997">level</text><!--
@startuml

skinparam {

    shadowing false
    arrowColor #46749F

    RectangleBorderColor #CCCCCC
    RectangleBackgroundColor #F5F2F0

    ComponentBorderColor #46749F
    ComponentBackgroundColor #E5ECF0

    UsecaseBorderColor #46749F
    UsecaseBackgroundColor #E5ECF0

    ControlBorderColor #0081C6
    ControlBackgroundColor #55DDCA

    frameBorderColor #0081C6
    packageBorderColor #0081C6

    noteBorderColor #468847
    noteBackgroundColor #DFF0D8
}


actor "<size:20> Dart Web</size> \n <size:20>Developer</size>" as webDev


[Angular Dart] as angular [[https://webdev.dartlang.org/angular]]
note bottom of angular
    Components, Directives, Templates...
    similar to TypeScript version,
    but with Dart language power & beauty
end note

rectangle [] as reactBox {

    [OverReact] as overReact [[https://pub.dartlang.org/packages/over_react]]
    note bottom of overReact: Statically typed \nReact

    [React] as react [[https://pub.dartlang.org/packages/react]]
    note bottom of react: Direct wrapper \nof ReactJS

}

[dart:html] as dartHtml [[https://webdev.dartlang.org/guides/web-programming#low-level-html]]
note bottom of dartHtml
    Low level HTML
    DOM modification
    jquery like
end note

[Stage XL] as stageXL [[http://www.stagexl.org/]]
note bottom of stageXL
    2D Web games
    Adobe Flash like APIs
end note

webDev -down-> angular: enterprise
webDev -down-> reactBox: react \nlike
webDev -down-> stageXL: games
webDev -down-> dartHtml: low \nlevel


@enduml

PlantUML version 1.2017.12(Wed Apr 26 18:06:36 CEST 2017)
(GPL source distribution)
Java Runtime: OpenJDK Runtime Environment
JVM: OpenJDK 64-Bit Server VM
Java Version: 1.8.0_112-release-736-b21
Operating System: Linux
OS Version: 4.4.0-72-generic
Default Encoding: UTF-8
Language: en
Country: US
--></g></svg>